<svg xmlns="http://www.w3.org/2000/svg" viewBox="0 0 64 64"><defs/><path d="M13.293 14.293l-3 3a1 1 0 000 1.414l3 3 1.414-1.414L12.414 18l2.293-2.293zM16.056 21.652l2.999-7.998 1.872.702-2.999 7.998zM23.707 21.707l3-3a1 1 0 000-1.414l-3-3-1.414 1.414L24.586 18l-2.293 2.293zM10 26h4v2h-4zM16 26h10v2H16zM12 30h4v2h-4zM18 30h10v2H18zM30 30h2v2h-2zM12 34h4v2h-4zM18 34h10v2H18zM30 34h2v2h-2zM61.142 13.01l-2.682-.383a10.86 10.86 0 00-.679-1.639l1.625-2.166a1 1 0 00-.093-1.307l-2.828-2.828a1 1 0 00-1.306-.093l-2.167 1.624a10.9 10.9 0 00-1.639-.678l-.383-2.682A1 1 0 0050 2h-4a1 1 0 00-.99.858l-.383 2.682a10.855 10.855 0 00-1.639.678l-2.167-1.624a1 1 0 00-1.306.093l-2.828 2.828a1 1 0 00-.093 1.307l1.625 2.166a10.86 10.86 0 00-.679 1.639l-2.682.383A1 1 0 0034 14v4a1 1 0 00.858.99l2.682.383a10.86 10.86 0 00.679 1.639l-1.625 2.166a1 1 0 00.093 1.307l2.828 2.828a1 1 0 001.306.093l2.167-1.624a10.855 10.855 0 001.639.678l.383 2.682A1 1 0 0046 30h4a1 1 0 00.99-.858l.383-2.682a10.9 10.9 0 001.639-.678l2.167 1.624a1 1 0 001.306-.093l2.828-2.828a1 1 0 00.093-1.307l-1.625-2.166a10.86 10.86 0 00.679-1.639l2.682-.383A1 1 0 0062 18v-4a1 1 0 00-.858-.99zM60 17.133l-2.463.352a1 1 0 00-.827.742 8.923 8.923 0 01-.977 2.357 1 1 0 00.061 1.111l1.492 1.99-1.6 1.6-1.991-1.492a1 1 0 00-1.11-.06 8.859 8.859 0 01-2.356.975 1 1 0 00-.744.828L49.133 28h-2.266l-.351-2.463a1 1 0 00-.744-.828 8.859 8.859 0 01-2.356-.975 1 1 0 00-1.11.06l-1.991 1.492-1.6-1.6 1.492-1.99a1 1 0 00.061-1.111 8.923 8.923 0 01-.977-2.357 1 1 0 00-.827-.742L36 17.133v-2.266l2.463-.352a1 1 0 00.827-.742 8.923 8.923 0 01.977-2.357 1 1 0 00-.061-1.111l-1.492-1.99 1.6-1.6 1.991 1.492a1 1 0 001.11.06 8.859 8.859 0 012.356-.975 1 1 0 00.744-.828L46.867 4h2.266l.351 2.463a1 1 0 00.744.828 8.859 8.859 0 012.356.975 1 1 0 001.11-.06l1.991-1.492 1.6 1.6-1.492 1.99a1 1 0 00-.061 1.111 8.923 8.923 0 01.977 2.357 1 1 0 00.827.742l2.464.353z"/><path d="M48 10a6 6 0 106 6 6.006 6.006 0 00-6-6zm0 10a4 4 0 114-4 4 4 0 01-4 4z"/><path d="M52 40H4V15a3 3 0 013-3h28v-2H7a5.006 5.006 0 00-5 5v30a5.006 5.006 0 005 5h12.867l-.75 6H17a2 2 0 00-2 2v2a2 2 0 002 2h22a2 2 0 002-2v-2a2 2 0 00-2-2h-2.117l-.75-6H49a5.006 5.006 0 005-5V29h-2zM39 60H17v-2h22zm-4.133-4H21.133l.75-6h12.234zM49 48H7a3 3 0 01-3-3v-3h48v3a3 3 0 01-3 3z"/><path d="M46 44h2v2h-2z"/></svg>