<svg xmlns="http://www.w3.org/2000/svg" viewBox="0 0 512 512"><defs/><path d="M504.5 480.837h-38.97V240.49c0-4.142-3.357-7.5-7.5-7.5s-7.5 3.358-7.5 7.5v240.347h-49.648l-.002-318.357h49.65v43.01c0 4.142 3.357 7.5 7.5 7.5s7.5-3.358 7.5-7.5v-50.51a7.5 7.5 0 00-7.5-7.5h-64.65a7.5 7.5 0 00-7.5 7.5v43.012h-57.148a7.5 7.5 0 00-7.5 7.5V248.5h-57.15a7.5 7.5 0 00-7.5 7.5v43.008h-57.15a7.5 7.5 0 00-7.5 7.5v43.008h-57.15a7.5 7.5 0 00-7.5 7.5v38.964H70.13a7.5 7.5 0 00-7.5 7.5v20.89c0 4.142 3.357 7.5 7.5 7.5s7.5-3.358 7.5-7.5v-13.39h49.65v69.857H77.63V459.37c0-4.142-3.357-7.5-7.5-7.5s-7.5 3.358-7.5 7.5v21.467H31.163V7.5c0-4.142-3.357-7.5-7.5-7.5s-7.5 3.358-7.5 7.5v38.967H7.5c-4.143 0-7.5 3.358-7.5 7.5s3.357 7.5 7.5 7.5h8.663v49.65H7.5c-4.143 0-7.5 3.358-7.5 7.5s3.357 7.5 7.5 7.5h8.663v49.65H7.5c-4.143 0-7.5 3.358-7.5 7.5s3.357 7.5 7.5 7.5h8.663v49.65H7.5c-4.143 0-7.5 3.358-7.5 7.5s3.357 7.5 7.5 7.5h8.663v49.651H7.5c-4.143 0-7.5 3.358-7.5 7.5s3.357 7.5 7.5 7.5h8.663v49.65H7.5c-4.143 0-7.5 3.358-7.5 7.5s3.357 7.5 7.5 7.5h8.663v49.65H7.5c-4.143 0-7.5 3.358-7.5 7.5s3.357 7.5 7.5 7.5h8.663v38.967a7.5 7.5 0 007.5 7.5H62.63v8.663c0 4.142 3.357 7.5 7.5 7.5s7.5-3.358 7.5-7.5v-8.66h49.65v8.66c0 4.142 3.357 7.5 7.5 7.5s7.5-3.358 7.5-7.5v-8.663h49.65v8.663c0 4.142 3.357 7.5 7.5 7.5s7.5-3.358 7.5-7.5v-8.663h49.65v8.663c0 4.142 3.357 7.5 7.5 7.5s7.5-3.358 7.5-7.5v-8.663h49.65v8.663c0 4.142 3.357 7.5 7.5 7.5s7.5-3.358 7.5-7.5v-8.663h49.65v8.663c0 4.142 3.357 7.5 7.5 7.5s7.5-3.358 7.5-7.5v-8.66h49.65v8.66c0 4.142 3.357 7.5 7.5 7.5s7.5-3.358 7.5-7.5v-8.663h38.97a7.5 7.5 0 100-14.998zM142.28 364.516h49.65v116.321h-49.65zm64.651-50.508h49.65v166.829h-49.65zm64.65-50.508h49.65v217.337h-49.65zm64.65-50.508h49.648v267.846h-49.648z"/><path d="M86.1 338.44c6.323 0 12.267-2.46 16.734-6.927l112.91-112.91a7.5 7.5 0 00-10.607-10.606L92.228 320.906a8.61 8.61 0 01-6.128 2.534c-2.311 0-4.482-.9-6.116-2.533a8.614 8.614 0 01-2.543-6.13c0-2.311.901-4.484 2.543-6.123l263.521-263.52a7.499 7.499 0 00-5.304-12.803h-23.61c-4.775 0-8.66-3.889-8.66-8.67 0-4.775 3.885-8.66 8.66-8.66h62.63c4.775 0 8.66 3.885 8.66 8.66v62.63c0 4.781-3.885 8.67-8.66 8.67s-8.66-3.889-8.66-8.67V62.68a7.499 7.499 0 00-12.804-5.303l-125.88 125.88a7.5 7.5 0 0010.607 10.606L353.56 80.787v5.503c0 13.052 10.614 23.67 23.66 23.67s23.66-10.618 23.66-23.67V23.66C400.88 10.614 390.266 0 377.22 0h-62.63c-13.046 0-23.66 10.614-23.66 23.66 0 13.052 10.614 23.67 23.66 23.67h5.504L69.38 298.043c-4.475 4.469-6.939 10.412-6.939 16.733 0 6.32 2.463 12.264 6.937 16.737A23.491 23.491 0 0086.1 338.44z"/></svg>